<svg xmlns="http://www.w3.org/2000/svg" width="73.443" height="73.422" viewBox="0 0 73.443 73.422"><defs><style>.a{fill:#f9ca55;}</style></defs><g transform="translate(0 0.303)"><path class="a" d="M72.4,21.029h0l0,0-4.741-.676a1.219,1.219,0,0,1-.559-2.181L70.926,15.3a1.219,1.219,0,0,0,.244-1.706L66.783,7.74A1.219,1.219,0,0,0,65.077,7.5l-3.83,2.874A1.219,1.219,0,0,1,59.3,9.223l.678-4.741A1.219,1.219,0,0,0,58.948,3.1h0L51.713,2.069A1.219,1.219,0,0,0,50.333,3.1h0l-.678,4.741a1.219,1.219,0,0,1-2.181.559L44.6,4.571A1.219,1.219,0,0,0,42.9,4.327L39.234,7.075a23.579,23.579,0,0,0-4.984,0A23.154,23.154,0,0,0,13.834,27.837c-.033.345-.045.687-.062,1.03h-.366a1.219,1.219,0,0,0-1.192.975l-.842,4L8,31.52a1.219,1.219,0,0,0-1.554.141L2.789,35.317a1.219,1.219,0,0,0-.141,1.553l2.315,3.367-4.006.842A1.219,1.219,0,0,0,0,42.272v4.875A1.219,1.219,0,0,0,.968,48.34l4.006.842L2.658,52.549A1.219,1.219,0,0,0,2.8,54.1l3.656,3.656a1.219,1.219,0,0,0,1.554.141l3.367-2.322.842,4.006a1.219,1.219,0,0,0,1.192.975h4.875a1.219,1.219,0,0,0,1.193-.968l.842-4.006L23.687,57.9a1.219,1.219,0,0,0,1.553-.141l1.893-1.9v3.473a4.859,4.859,0,0,0,2.437,4.2V70.3a4.875,4.875,0,0,0,4.875,4.875h4.875A4.875,4.875,0,0,0,44.193,70.3V63.53a4.859,4.859,0,0,0,2.437-4.2V54.51a5.971,5.971,0,0,1,2.819-4.974,23.386,23.386,0,0,0,2.869-2.194l-1.626-1.816a20.746,20.746,0,0,1-2.568,1.963,8.394,8.394,0,0,0-3.931,7.021v4.823a2.437,2.437,0,0,1-2.437,2.437H32.006a2.437,2.437,0,0,1-2.437-2.437V54.409A8.2,8.2,0,0,0,25.7,47.531,20.655,20.655,0,0,1,36.619,9.387a1.325,1.325,0,0,0-.048.133,1.219,1.219,0,0,0,.233.9l2.872,3.83a1.193,1.193,0,0,1,.073,1.353,1.211,1.211,0,0,1-1.219.586l-4.741-.678a1.219,1.219,0,0,0-1.379,1.033h0l-1.035,7.237a1.219,1.219,0,0,0,1.033,1.379h0l4.741.678a1.219,1.219,0,0,1,.559,2.181L33.881,30.9a1.219,1.219,0,0,0-.244,1.706l4.387,5.849a1.219,1.219,0,0,0,1.706.244l3.831-2.872A1.219,1.219,0,0,1,45.5,36.971l-.676,4.741a1.219,1.219,0,0,0,1.033,1.379h0l7.239,1.035a1.35,1.35,0,0,0,.172.011,1.219,1.219,0,0,0,1.208-1.046l.676-4.741a1.219,1.219,0,0,1,2.181-.559l2.874,3.83a1.219,1.219,0,0,0,1.706.244l5.849-4.387A1.219,1.219,0,0,0,68,35.772l-2.872-3.83a1.2,1.2,0,0,1-.073-1.353A1.183,1.183,0,0,1,66.277,30l4.741.676a1.219,1.219,0,0,0,1.38-1.033h0l1.033-7.239A1.219,1.219,0,0,0,72.4,21.029ZM32.006,64.208h9.749v2.437H32.006Zm0,4.875h9.749V70.3a2.437,2.437,0,0,1-2.437,2.437H34.444A2.437,2.437,0,0,1,32.006,70.3ZM22.3,48.067a23.033,23.033,0,0,0,2.083,1.517A5.948,5.948,0,0,1,26.843,52.7l-2.614,2.609L21.7,53.567a2.437,2.437,0,0,0-3.768,1.505l-.639,3.043h-2.9l-.639-3.038a2.437,2.437,0,0,0-3.768-1.505l-2.532,1.74L5.235,53.1l1.744-2.53a2.437,2.437,0,0,0-1.5-3.769l-3.038-.64v-2.9l3.038-.64A2.437,2.437,0,0,0,6.98,38.86L5.235,36.323l2.22-2.215,2.534,1.745a2.437,2.437,0,0,0,3.767-1.506l.213-1.014a23.207,23.207,0,0,0,.966,4.132,7.312,7.312,0,1,0,7.369,10.6ZM20.412,46.35a4.867,4.867,0,1,1-4.57-6.515h.046A23.08,23.08,0,0,0,20.412,46.35ZM70.15,28.092l-3.534-.5A3.656,3.656,0,0,0,63.174,33.4l2.141,2.855-3.9,2.925-2.142-2.854A3.656,3.656,0,0,0,52.729,38l-.494,3.539-4.825-.69.5-3.534A3.656,3.656,0,0,0,42.1,33.875l-2.855,2.141-2.925-3.9,2.854-2.142A3.656,3.656,0,0,0,37.5,23.43l-3.534-.5.69-4.825,3.534.5a3.656,3.656,0,0,0,3.443-5.813L39.485,9.934l3.9-2.925,2.142,2.855a3.656,3.656,0,0,0,6.544-1.676l.5-3.534,4.825.689-.5,3.534a3.656,3.656,0,0,0,5.813,3.441l2.855-2.141,2.925,3.9L65.633,16.22a3.656,3.656,0,0,0,1.676,6.544l3.534.5Z" transform="translate(0 -2.057)"/></g><g transform="translate(42.652 11.593)"><path class="a" d="M289.749,76.171A9.749,9.749,0,1,0,299.5,85.92,9.749,9.749,0,0,0,289.749,76.171Zm0,17.061a7.312,7.312,0,1,1,7.312-7.312A7.312,7.312,0,0,1,289.749,93.232Z" transform="translate(-280 -76.171)"/></g><g transform="translate(35.662 53.924)"><rect class="a" width="2.437" height="3.656"/></g><g transform="translate(19.81 13.896)"><path class="a" d="M141.785,119.35a14.624,14.624,0,0,1-2.469-26l-1.3-2.062a17.061,17.061,0,0,0,2.887,30.327,7.78,7.78,0,0,1,5,7.263h2.437A10.2,10.2,0,0,0,141.785,119.35Z" transform="translate(-130.044 -91.291)"/></g><g transform="translate(60.035 45.393)"><rect class="a" width="8.53" height="2.437"/></g><g transform="translate(58.037 51.768)"><g transform="translate(0 0)"><rect class="a" width="2.437" height="9.518" transform="matrix(0.64, -0.768, 0.768, 0.64, 0, 1.873)"/></g></g><g transform="translate(52.723 55.142)"><rect class="a" width="2.437" height="8.53"/></g><g transform="translate(1.244 18.619)"><g transform="translate(0)"><rect class="a" width="10.049" height="2.436" transform="translate(0 2.437) rotate(-14.035)"/></g></g><g transform="translate(3.269 6.625)"><g transform="translate(0 0)"><rect class="a" width="2.436" height="10.483" transform="matrix(0.581, -0.814, 0.814, 0.581, 0, 1.982)"/></g></g><g transform="translate(13.71 0)"><rect class="a" width="2.437" height="10.062" transform="matrix(0.969, -0.248, 0.248, 0.969, 0, 0.604)"/></g></svg>