<svg xmlns="http://www.w3.org/2000/svg" width="187.611" height="57" viewBox="0 0 187.611 57"><defs><style>.a{fill:#fff;}</style></defs><path class="a" d="M88.408,104.582c-.395.166-.794.323-1.2.476h15.6a2.256,2.256,0,0,0,2.258-2.258V87.19a30.424,30.424,0,0,1-16.66,17.392Z" transform="translate(-48.069 -48.057)"/><path class="a" d="M55.361,41.2a26.584,26.584,0,1,0-9.632,11.7A26.435,26.435,0,0,0,55.361,41.2ZM38.6,49.175a19.887,19.887,0,1,1,8.743-7.2A19.853,19.853,0,0,1,38.6,49.175Z" transform="translate(-2.365 -2.359)"/><path class="a" d="M50.033,29.011a16.064,16.064,0,1,0,7.06,5.821A15.973,15.973,0,0,0,50.033,29.011ZM43.79,52.9a9.1,9.1,0,1,1,9.1-9.1A9.1,9.1,0,0,1,43.79,52.9Z" transform="translate(-15.29 -15.295)"/><path class="a" d="M16.66.476c.395-.166.794-.323,1.2-.476H2.258A2.256,2.256,0,0,0,0,2.258V17.872A30.126,30.126,0,0,1,3.281,11.5,30.465,30.465,0,0,1,16.66.476Z"/><path class="a" d="M170.562,47.063a19.389,19.389,0,0,0-4.071-.637.466.466,0,0,0-.13-.022h-.13a2.308,2.308,0,0,0-.3-.022,1.779,1.779,0,0,1-.274-.022c-1.216-.072-2.15-.162-2.81-.265a3.747,3.747,0,0,1-1.634-.615,1.583,1.583,0,0,1-.646-1.382,2.652,2.652,0,0,1,1.14-2.338,6.1,6.1,0,0,1,3.424-.781,10.312,10.312,0,0,1,3.236.548,15.028,15.028,0,0,1,3.371,1.647l2.7-3.272a15.089,15.089,0,0,0-5.915-2.612,16.887,16.887,0,0,0-3.389-.328,13.045,13.045,0,0,0-4.892.8,6.012,6.012,0,0,0-2.94,2.4,7.517,7.517,0,0,0-.987,4.017,5.881,5.881,0,0,0,1.019,3.707,5.1,5.1,0,0,0,2.558,1.768,17.727,17.727,0,0,0,3.752.646c.058,0,.117,0,.175.009a1.144,1.144,0,0,0,.175.009c.117.013.242.027.373.031s.256.009.373.009q1.952.155,3.03.341a4.08,4.08,0,0,1,1.8.736,1.933,1.933,0,0,1,.723,1.647,2.717,2.717,0,0,1-1.329,2.469,7.694,7.694,0,0,1-3.981.821,9.991,9.991,0,0,1-3.6-.7,15.015,15.015,0,0,1-3.667-2.1l-2.657,3.272a12.891,12.891,0,0,0,2.832,1.975A13.827,13.827,0,0,0,161.2,60a17.23,17.23,0,0,0,3.784.395,14.971,14.971,0,0,0,5.323-.812,6.358,6.358,0,0,0,3.169-2.424,7.326,7.326,0,0,0,1.055-4.071,6.487,6.487,0,0,0-1.14-4.125A5.525,5.525,0,0,0,170.562,47.063Z" transform="translate(-85.466 -20.372)"/><path class="a" d="M225.7,38.056a7.612,7.612,0,0,0-4.138-1.086,6.653,6.653,0,0,0-3.707,1.086,7.594,7.594,0,0,0-2.24,2.293V37.3H211.14V69.343h4.475V57.162a5.835,5.835,0,0,0,2.02,2.231,6.668,6.668,0,0,0,3.707,1.019,8.034,8.034,0,0,0,4.259-1.086,6.807,6.807,0,0,0,2.7-3.151,12.183,12.183,0,0,0,.92-4.959V46.256a12.709,12.709,0,0,0-.9-5.027A6.833,6.833,0,0,0,225.7,38.056Zm-.956,13.159a5.476,5.476,0,0,1-1.216,3.806,4.4,4.4,0,0,1-3.433,1.351,4.985,4.985,0,0,1-2.424-.548,3.654,3.654,0,0,1-1.526-1.58,5.458,5.458,0,0,1-.525-2.5V45.529a5.277,5.277,0,0,1,.525-2.446,3.51,3.51,0,0,1,1.526-1.548,5.143,5.143,0,0,1,2.424-.525,4.34,4.34,0,0,1,3.433,1.382,5.677,5.677,0,0,1,1.216,3.882Z" transform="translate(-116.376 -20.377)"/><path class="a" d="M268.566,53.917,262.834,37.71H258.27l8.263,22.419-1.086,3.326a4.069,4.069,0,0,1-1.284,1.732,3.459,3.459,0,0,1-1.988.507h-.9v4.3h.9a10.277,10.277,0,0,0,3.074-.395,4.843,4.843,0,0,0,2.1-1.306,6.674,6.674,0,0,0,1.382-2.469l9.7-28.11h-4.564Z" transform="translate(-142.354 -20.785)"/><path class="a" d="M322.432,36.97a6.412,6.412,0,0,0-3.685,1.131,8.02,8.02,0,0,0-2.262,2.374V37.3H312.01V60.08h4.475V45.664a4.389,4.389,0,0,1,1.176-3.258,4.474,4.474,0,0,1,3.3-1.176,5.464,5.464,0,0,1,2.087.373,3.731,3.731,0,0,1,1.49,1.1l2.917-3.95a6.352,6.352,0,0,0-2.2-1.329A8.466,8.466,0,0,0,322.432,36.97Z" transform="translate(-171.974 -20.377)"/><rect class="a" width="4.475" height="22.778" transform="translate(159.214 16.925)"/><rect class="a" width="4.475" height="4.475" transform="translate(159.214 7.796)"/><path class="a" d="M394.593,40.866a6.912,6.912,0,0,0-3.074-2.895,10.864,10.864,0,0,0-4.852-1,12.3,12.3,0,0,0-4.708.866,8.544,8.544,0,0,0-3.411,2.424l3.272,2.24a7.9,7.9,0,0,1,2.316-1.162,8.707,8.707,0,0,1,2.666-.417,4.484,4.484,0,0,1,3.389,1.239,4.792,4.792,0,0,1,1.194,3.478V46.6h-6.274q-3.864,0-5.772,1.688a6.412,6.412,0,0,0-1.908,5.067,6.517,6.517,0,0,0,2.087,5.3q2.087,1.744,6.3,1.746a10.214,10.214,0,0,0,2.567-.3,6.333,6.333,0,0,0,2.006-.889,5.159,5.159,0,0,0,1-.907v1.759h4.259V45.444A9.327,9.327,0,0,0,394.593,40.866Zm-3.2,13.64a1.8,1.8,0,0,1-1.261,1.71,10.175,10.175,0,0,1-3.828.548,5.974,5.974,0,0,1-3.5-.835,2.963,2.963,0,0,1-1.153-2.567,3.045,3.045,0,0,1,.866-2.383,3.811,3.811,0,0,1,2.621-.781h6.257Z" transform="translate(-208.032 -20.377)"/></svg>