<svg xmlns="http://www.w3.org/2000/svg" width="58.01" height="77.993" viewBox="0 0 58.01 77.993"><defs><style>.a{fill:#f9ca55;}</style></defs><path class="a" d="M213.457,413.523A1.523,1.523,0,1,1,211.933,412,1.523,1.523,0,0,1,213.457,413.523Zm0,0" transform="translate(-178.358 -349.24)"/><path class="a" d="M1.89,41.912a4.57,4.57,0,0,0-.771,6.7l18.2,21.676-5.106,5.106a1.523,1.523,0,0,0,1.077,2.6H42.714a1.523,1.523,0,0,0,1.078-2.6l-5.106-5.106,18.2-21.676a4.571,4.571,0,0,0-.771-6.7L38.145,28.19V24.114a4.571,4.571,0,0,0,.3-8.5,10.663,10.663,0,1,0-18.88,0,4.57,4.57,0,0,0,.3,8.5V28.19ZM35.1,24.373V27.42H22.911V24.373Zm1.009,6.093,17.16,13.1H4.743l17.16-13.1ZM18.972,74.947,22.019,71.9H35.99l3.047,3.047ZM54.566,46.641,35.911,68.853H22.1L3.422,46.616l0,0H54.589l0,0-.02.024ZM36.621,21.326H21.388a1.523,1.523,0,0,1,0-3.047H36.621a1.523,1.523,0,1,1,0,3.047ZM29,3.047a7.612,7.612,0,0,1,6.088,12.186H22.916A7.611,7.611,0,0,1,29,3.047Zm0,0" transform="translate(0.001 0)"/><path class="a" d="M247.011,326.323a1.523,1.523,0,0,0-2.139.261l-6.779,8.66a1.523,1.523,0,0,0,2.4,1.878l6.779-8.66A1.523,1.523,0,0,0,247.011,326.323Zm0,0" transform="translate(-201.551 -276.339)"/><path class="a" d="M151.933,249.047h9.14a1.523,1.523,0,0,0,0-3.047h-9.14a1.523,1.523,0,0,0,0,3.047Zm0,0" transform="translate(-127.498 -208.527)"/></svg>