<svg xmlns="http://www.w3.org/2000/svg" width="74" height="74" viewBox="0 0 74 74"><defs><style>.a{fill:#f9ca55;}</style></defs><path class="a" d="M72.388,41.3A8.6,8.6,0,0,0,74,37a8.6,8.6,0,0,0-1.612-4.3A8.717,8.717,0,0,1,71.2,30.2a9.008,9.008,0,0,1,.141-2.874,8.347,8.347,0,0,0-.145-4.487,8.414,8.414,0,0,0-3.111-3.318,8.842,8.842,0,0,1-2.093-1.887,8.906,8.906,0,0,1-.959-2.68,8.4,8.4,0,0,0-1.866-4.114,8.4,8.4,0,0,0-4.115-1.866,8.9,8.9,0,0,1-2.68-.959,8.835,8.835,0,0,1-1.887-2.093,8.413,8.413,0,0,0-3.318-3.111,5.433,5.433,0,0,0-2.112-.379,16.358,16.358,0,0,0-2.374.234,14.626,14.626,0,0,1-2.067.211A4.14,4.14,0,0,1,43.8,2.8,8.716,8.716,0,0,1,41.3,1.611,8.6,8.6,0,0,0,37,0a8.6,8.6,0,0,0-4.3,1.612A8.716,8.716,0,0,1,30.2,2.8a4.142,4.142,0,0,1-.807.071,14.6,14.6,0,0,1-2.067-.211,16.364,16.364,0,0,0-2.374-.234,5.432,5.432,0,0,0-2.112.379A8.414,8.414,0,0,0,19.52,5.919a8.835,8.835,0,0,1-1.887,2.093,8.91,8.91,0,0,1-2.68.959,8.4,8.4,0,0,0-4.115,1.866,8.4,8.4,0,0,0-1.866,4.115,8.909,8.909,0,0,1-.959,2.68A8.833,8.833,0,0,1,5.92,19.519a8.414,8.414,0,0,0-3.111,3.318,8.347,8.347,0,0,0-.145,4.487A9.007,9.007,0,0,1,2.8,30.2,8.714,8.714,0,0,1,1.612,32.7,8.6,8.6,0,0,0,0,37a8.6,8.6,0,0,0,1.612,4.3A8.717,8.717,0,0,1,2.8,43.8a9.008,9.008,0,0,1-.141,2.874,8.347,8.347,0,0,0,.145,4.487,8.414,8.414,0,0,0,3.111,3.318,8.842,8.842,0,0,1,2.093,1.887,8.906,8.906,0,0,1,.959,2.68,8.4,8.4,0,0,0,1.866,4.114,8.4,8.4,0,0,0,4.115,1.866,8.9,8.9,0,0,1,2.68.959,8.835,8.835,0,0,1,1.887,2.093,8.413,8.413,0,0,0,3.318,3.111,5.426,5.426,0,0,0,2.113.379,16.358,16.358,0,0,0,2.374-.234,14.629,14.629,0,0,1,2.067-.211,4.141,4.141,0,0,1,.807.071A8.713,8.713,0,0,1,32.7,72.389,8.6,8.6,0,0,0,37,74a8.6,8.6,0,0,0,4.3-1.612A8.715,8.715,0,0,1,43.8,71.2a4.142,4.142,0,0,1,.807-.071,14.6,14.6,0,0,1,2.067.211,16.344,16.344,0,0,0,2.374.234,5.432,5.432,0,0,0,2.112-.379,8.414,8.414,0,0,0,3.318-3.111,8.835,8.835,0,0,1,1.887-2.093,8.91,8.91,0,0,1,2.68-.959,8.4,8.4,0,0,0,4.115-1.866,8.4,8.4,0,0,0,1.866-4.115,8.909,8.909,0,0,1,.959-2.68,8.833,8.833,0,0,1,2.093-1.887,8.414,8.414,0,0,0,3.111-3.318,8.347,8.347,0,0,0,.145-4.487A9.007,9.007,0,0,1,71.2,43.8,8.728,8.728,0,0,1,72.388,41.3Zm-1.966-1.18a10.426,10.426,0,0,0-1.476,3.243,10.755,10.755,0,0,0,.122,3.655,6.7,6.7,0,0,1,0,3.273,6.742,6.742,0,0,1-2.356,2.352,10.565,10.565,0,0,0-2.635,2.456,10.636,10.636,0,0,0-1.278,3.4,6.735,6.735,0,0,1-1.263,3.051A6.735,6.735,0,0,1,58.49,62.8a10.641,10.641,0,0,0-3.4,1.278,10.57,10.57,0,0,0-2.456,2.635,6.744,6.744,0,0,1-2.352,2.356,3.209,3.209,0,0,1-1.234.2,14.467,14.467,0,0,1-2.038-.209,16.508,16.508,0,0,0-2.4-.236,6.4,6.4,0,0,0-1.252.114,10.437,10.437,0,0,0-3.242,1.476A6.785,6.785,0,0,1,37,71.707a6.783,6.783,0,0,1-3.115-1.284,10.429,10.429,0,0,0-3.242-1.476,6.4,6.4,0,0,0-1.252-.114,16.521,16.521,0,0,0-2.4.236,14.446,14.446,0,0,1-2.038.209,3.209,3.209,0,0,1-1.234-.2,6.741,6.741,0,0,1-2.352-2.356,10.564,10.564,0,0,0-2.455-2.635,10.641,10.641,0,0,0-3.4-1.278,6.736,6.736,0,0,1-3.051-1.263A6.735,6.735,0,0,1,11.2,58.49a10.639,10.639,0,0,0-1.278-3.4,10.565,10.565,0,0,0-2.635-2.456,6.745,6.745,0,0,1-2.356-2.352,6.7,6.7,0,0,1,.005-3.272,10.751,10.751,0,0,0,.122-3.655,10.439,10.439,0,0,0-1.476-3.243A6.782,6.782,0,0,1,2.293,37a6.784,6.784,0,0,1,1.284-3.115,10.426,10.426,0,0,0,1.476-3.243,10.755,10.755,0,0,0-.122-3.655,6.7,6.7,0,0,1,0-3.273,6.743,6.743,0,0,1,2.356-2.352,10.565,10.565,0,0,0,2.635-2.456,10.636,10.636,0,0,0,1.278-3.4,6.735,6.735,0,0,1,1.263-3.051A6.734,6.734,0,0,1,15.51,11.2a10.641,10.641,0,0,0,3.4-1.278,10.57,10.57,0,0,0,2.456-2.635,6.744,6.744,0,0,1,2.352-2.356,3.209,3.209,0,0,1,1.234-.2,14.467,14.467,0,0,1,2.038.209,16.508,16.508,0,0,0,2.4.236,6.4,6.4,0,0,0,1.252-.114,10.437,10.437,0,0,0,3.242-1.476A6.785,6.785,0,0,1,37,2.293a6.783,6.783,0,0,1,3.115,1.284,10.432,10.432,0,0,0,3.242,1.476,6.4,6.4,0,0,0,1.252.114,16.522,16.522,0,0,0,2.4-.236,14.443,14.443,0,0,1,2.038-.209,3.209,3.209,0,0,1,1.234.2,6.741,6.741,0,0,1,2.352,2.356,10.564,10.564,0,0,0,2.455,2.635,10.641,10.641,0,0,0,3.4,1.278,6.736,6.736,0,0,1,3.051,1.263A6.734,6.734,0,0,1,62.8,15.51a10.641,10.641,0,0,0,1.278,3.4,10.562,10.562,0,0,0,2.635,2.456,6.745,6.745,0,0,1,2.356,2.352,6.7,6.7,0,0,1-.005,3.272,10.751,10.751,0,0,0-.122,3.655,10.439,10.439,0,0,0,1.476,3.243A6.782,6.782,0,0,1,71.707,37,6.784,6.784,0,0,1,70.422,40.115Z"/><g transform="translate(11.391 11.391)"><path class="a" d="M104.419,78.81a25.609,25.609,0,1,0,25.609,25.609A25.639,25.639,0,0,0,104.419,78.81Zm0,48.926a23.316,23.316,0,1,1,23.316-23.316A23.342,23.342,0,0,1,104.419,127.736Z" transform="translate(-78.81 -78.81)"/></g><g transform="translate(17.888 23.123)"><path class="a" d="M161.868,172.6l-5.936-11.977-.01-.016a1.161,1.161,0,0,0-.066-.113l-.008-.013a1.139,1.139,0,0,0-.091-.114l-.019-.02a1.131,1.131,0,0,0-.088-.084l-.022-.019a1.165,1.165,0,0,0-.117-.084l-.014-.008c-.027-.016-.055-.033-.084-.047l-.027-.012-.039-.017c-.035-.015-.07-.027-.106-.039l-.029-.009a1.113,1.113,0,0,0-.142-.03l-.019,0a1.174,1.174,0,0,0-.129-.009H130.889a1.111,1.111,0,0,0-.121.009l-.027,0a1.123,1.123,0,0,0-.139.03l-.028.009c-.035.011-.071.024-.105.038l-.04.018-.031.014c-.025.012-.048.026-.071.04l-.023.013a1.129,1.129,0,0,0-.116.083l-.02.017a1.086,1.086,0,0,0-.088.083l-.021.023a1.148,1.148,0,0,0-.091.113,1.191,1.191,0,0,0-.073.123l-.01.016-6,11.977a1.147,1.147,0,0,0,.189,1.3l17.965,19.163a1.148,1.148,0,0,0,1.674,0l17.965-19.163A1.147,1.147,0,0,0,161.868,172.6Zm-8.812-10.321-4.1,8.269-4.185-8.269Zm-5.954,9.683h-8.337l4.147-8.28Zm-6.053-9.683-4.142,8.269-4.142-8.269Zm-14.756,10.629,4.615-9.215,4.142,8.269H131.2a1.147,1.147,0,0,0,0,2.293h4.866l4.231,13.587Zm16.593,15.543-4.421-14.2H147.4Zm2.616-.659,4.3-13.537h4.747a1.147,1.147,0,0,0,0-2.293h-3.737l4.088-8.248,4.556,9.191Z" transform="translate(-123.763 -159.985)"/></g><g transform="translate(6.804 6.804)"><path class="a" d="M77.27,47.074A30.18,30.18,0,0,0,54.31,96.86a1.147,1.147,0,0,0,1.744-1.49,27.939,27.939,0,1,1,3.117,3.117,1.147,1.147,0,1,0-1.49,1.744A30.19,30.19,0,1,0,77.27,47.074Z" transform="translate(-47.074 -47.074)"/></g></svg>